Simulation
nRows=20
nColumns=15
endheader
time  TH_x TH_y TH_z SC_y  SC_z  SC_x  AC_y  AC_z  AC_x  GH_y  GH_z  GH_yy  EL_x  PS_y
5.745  0.000000  0.000000  0.000000  -50.92604352729961  20.160732890355824  41.859935514089386  69.47067335779178  -9.523868419909524  22.250047875558582  -4.72566215146736  55.133430255906255  -17.528047733723348  18.540644306404634  120.000000
5.80245  0.000000  0.000000  0.000000  -49.512871151068474  19.086217805490996  37.80167009723013  69.91729639431863  -9.467319230917946  22.240460479640827  -4.989968856750101  54.93805363662181  -17.094510520953495  18.841455152820913  120.000000
5.8599  0.000000  0.000000  0.000000  -47.886286475521146  17.590095970067704  32.99076652759929  70.29248479822789  -9.379799548031452  22.2896571595827  -5.463834551260671  54.55961134596239  -16.109945835453043  19.23877710873641  120.000000
5.91735  0.000000  0.000000  0.000000  -46.16392968100714  15.638234171372014  27.661469090100628  70.4804142478312  -9.303221540763337  22.360252252579293  -6.172897298907728  54.04397079735285  -14.508911961382301  19.642099020502886  120.000000
5.9748  0.000000  0.000000  0.000000  -44.47335600651893  13.249504749043796  22.089861461120805  70.37101424516028  -9.293288389325054  22.395756312312233  -7.093195175324525  53.448186424215244  -12.299979932786306  19.9441378954227  120.000000
6.03225  0.000000  0.000000  0.000000  -42.93034086106911  10.497042374306801  16.569669107533894  69.88351087746543  -9.41058827842832  22.325997710254477  -8.146457575636239  52.81842582650685  -9.584834150718764  20.057097237609216  120.000000
6.089700000000001  0.000000  0.000000  0.000000  -41.60529722988959  7.50085227713803  11.38645600369078  68.99025723506257  -9.707400050209555  22.075559646611623  -9.23093156505139  52.16299700382448  -6.544750525314163  19.935559682297907  120.000000
6.14715  0.000000  0.000000  0.000000  -40.48715205634387  4.414293827270189  6.8021673073163464  67.7254038044813  -10.214032085455411  21.576028036759276  -10.278425215662432  51.42830016548664  -3.391432758896136  19.57789434774699  120.000000
6.2046  0.000000  0.000000  0.000000  -39.47890765669981  1.4160182925719014  3.0475752547773656  66.17903180338463  -10.930207157745452  20.779734924361776  -11.281038900991167  50.496088632757974  -0.3160218588601311  19.007855112797653  120.000000
6.26205  0.000000  0.000000  0.000000  -38.45709529929995  -1.2930574931859284  0.3105434876717793  64.47822313968062  -11.819466713917803  19.67450506900634  -12.23950482912491  49.21545194059227  2.5340796512451136  18.27020313740245  120.000000
6.3195  0.000000  0.000000  0.000000  -37.37385076301551  -3.503631777724626  -1.2997123261399166  62.77166686923056  -12.823025363143495  18.295306940021028  -13.065262087832219  47.474483784235964  5.0404078450294545  17.436071237007145  120.000000
6.37695  0.000000  0.000000  0.000000  -36.322640690244285  -5.054228281022751  -1.7979300307870714  61.19694682391957  -13.886623059261987  16.712670188692762  -13.55570980925829  45.249500256915404  7.10933216610036  16.61639342711867  120.000000
6.4344  0.000000  0.000000  0.000000  -35.487235833871274  -5.908702705230279  -1.3264765115091097  59.82500551646537  -14.971155962955079  14.988563515791835  -13.509447346953197  42.607037461082776  8.703439657107841  15.931124832240473  120.000000
6.49185  0.000000  0.000000  0.000000  -34.983758637303495  -6.16393381904943  -0.09937968057140881  58.646457840469914  -16.05347285649297  13.154759405877364  -12.87364125387012  39.683537115561506  9.869266739341732  15.444069884988908  120.000000
6.549300000000001  0.000000  0.000000  0.000000  -34.7738970593482  -5.989099929869407  1.6669056213957216  57.61548572986187  -17.126146482925876  11.23752902346116  -11.778516810883382  36.64721905469501  10.733326140208776  15.176997976529776  120.000000
6.60675  0.000000  0.000000  0.000000  -34.73379711394351  -5.570044635327682  3.7741381517024477  56.69039181049418  -18.18432805615336  9.271169580931405  -10.428165787758541  33.66282537109216  11.428383253346409  15.12876585042988  120.000000
6.6642  0.000000  0.000000  0.000000  -34.76387969167586  -5.075399433923404  6.038907948331273  55.83516099079389  -19.215922536725735  7.290004683069916  -8.98757867606265  30.869514659470106  12.027593485751318  15.283752712542224  120.000000
6.72165  0.000000  0.000000  0.000000  -34.815088067417335  -4.627353342084555  8.302347021198868  55.02267431824585  -20.20802190596913  5.326531009326734  -7.572301827816028  28.373487074775284  12.556216340530488  15.612430409678593  120.000000
6.7791  0.000000  0.000000  0.000000  -34.85260691175025  -4.292076885003191  10.442745691512624  54.2338305657068  -21.147319488471  3.412089563927057  -6.294405824739308  26.24053721219647  13.052445932368725  16.061541335215583  120.000000
6.83655  0.000000  0.000000  0.000000  -34.855690048665224  -4.088454219780926  12.37741122022393  53.45785192526459  -22.0188682604925  1.579994719365587  -5.258523048677776  24.49345865775531  13.579453824878737  16.555216715366875  120.000000
